<?xml version="1.0" encoding="UTF-8"?>
<svg xmlns="http://www.w3.org/2000/svg" xmlns:xlink="http://www.w3.org/1999/xlink" version="1.1" viewBox="0 0 736 354">
  <defs>
    <style>
      .cls-1 {
        font-family: IBMPlexMono-SmBld, 'IBM Plex Mono';
        font-size: 36.8px;
      }

      .cls-1, .cls-2 {
        fill: #f8b20e;
      }

      .cls-3 {
        mask: url(#mask);
      }

      .cls-4 {
        mix-blend-mode: multiply;
      }

      .cls-2, .cls-5, .cls-6, .cls-7, .cls-8, .cls-9 {
        stroke-width: 0px;
      }

      .cls-5 {
        fill: url(#_무제_그라디언트);
      }

      .cls-6, .cls-9 {
        fill: #f6d10c;
      }

      .cls-7 {
        fill: url(#_무제_그라디언트-2);
      }

      .cls-8 {
        fill: #f3ed50;
      }

      .cls-8, .cls-9 {
        fill-rule: evenodd;
      }

      .cls-10 {
        isolation: isolate;
      }

      .cls-11 {
        mask: url(#mask-1);
      }
    </style>
    <mask id="mask" x="241.5" y="54.3" width="253.4" height="245.5" maskUnits="userSpaceOnUse">
      <g id="mask0_126_97" data-name="mask0 126 97">
        <path class="cls-9" d="M432.6,299.9L241.5,120.9l62.4-66.6,191.1,178.9-62.4,66.6Z"/>
      </g>
    </mask>
    <linearGradient id="_무제_그라디언트" data-name="무제 그라디언트" x1="353.3" y1="-725" x2="199.5" y2="-839" gradientTransform="translate(0 -529.1) scale(1 -1)" gradientUnits="userSpaceOnUse">
      <stop offset="0" stop-color="#f6d10c"/>
      <stop offset="1" stop-color="#f3ed50"/>
    </linearGradient>
    <mask id="mask-1" x="241.5" y="-387.8" width="253.4" height="245.5" maskUnits="userSpaceOnUse">
      <g id="mask0_126_97-2" data-name="mask0 126 97">
        <path class="cls-9" d="M432.6-142.3l-191.1-178.9,62.4-66.6,191.1,178.9-62.4,66.6Z"/>
      </g>
    </mask>
    <linearGradient id="_무제_그라디언트-2" data-name="무제 그라디언트" y1="-282.8" x2="199.5" y2="-396.8" xlink:href="#_무제_그라디언트"/>
    <path id="path" d="M174.2-150.3c-62.3,0-112.7-50.5-112.7-112.7s50.5-112.7,112.7-112.7"/>
    <path id="path-2" d="M563-375.8c62.3,0,112.7,50.5,112.7,112.7s-50.5,112.7-112.7,112.7"/>
  </defs>
  <g class="cls-10">
    <g id="_레이어_1" data-name="레이어 1">
      <path class="cls-8" d="M0,177C0,22.5,184.4-57.4,297.1,48.2l137.4,128.8-137.4,128.8C184.4,411.4,0,331.5,0,177ZM234.7,114.8c-54.4-51-143.5-12.4-143.5,62.2s89.1,113.3,143.5,62.2l66.4-62.2-66.4-62.2Z"/>
      <path class="cls-9" d="M736,177c0-154.5-184.4-234.4-297.1-128.8l-137.4,128.8,137.4,128.8c112.7,105.6,297.1,25.7,297.1-128.8ZM501.3,114.8c54.4-51,143.5-12.4,143.5,62.2s-89.1,113.3-143.5,62.2l-66.4-62.2,66.4-62.2Z"/>
      <g class="cls-3">
        <path class="cls-6" d="M368,114.5l-66.7,62.5,66.7,62.5,66.7-62.5-66.7-62.5Z"/>
      </g>
      <g class="cls-4">
        <path class="cls-2" d="M140.9,61.1c-5.8,0-9.3-3.8-9.3-9.9s3.5-9.9,9.3-9.9,6.4,1.8,7.7,4.6l-3.6,2c-.7-1.6-1.9-2.7-4-2.7s-4.3,1.8-4.3,4.5v3.2c0,2.7,1.5,4.5,4.4,4.5s3.5-1.1,4.3-2.8l3.5,2.1c-1.3,2.7-3.8,4.6-7.9,4.6ZM162.3,61.1c-5.7,0-9.3-3.8-9.3-9.9s3.5-9.9,9.3-9.9,9.3,3.8,9.3,9.9-3.5,9.9-9.3,9.9ZM162.3,57.5c2.7,0,4.4-1.7,4.4-4.9v-2.9c0-3.2-1.7-4.9-4.4-4.9s-4.4,1.7-4.4,4.9v2.9c0,3.2,1.7,4.9,4.4,4.9ZM188.1,60.7v-3.3h-.3c-1,2.3-2.8,3.8-5.7,3.8-4.3,0-7.2-3.2-7.2-9.9s2.9-9.9,7.2-9.9,4.6,1.5,5.7,3.8h.3v-11.6h4.7v27.2h-4.7ZM184.2,57.4c2.1,0,3.9-1,3.9-3.2v-6c0-2.2-1.8-3.2-3.9-3.2s-4.3,1.8-4.3,4.7v3c0,2.9,1.6,4.7,4.3,4.7ZM206.8,61.1c-6.1,0-9.5-3.8-9.5-9.9s3.5-10,9.1-10,8.9,3.8,8.9,9.5v1.5h-13.3v.5c0,2.7,1.8,4.6,4.9,4.6s4-1,5.2-2.6l2.7,2.7c-1.4,2-4,3.6-8,3.6ZM206.5,44.7c-2.6,0-4.4,1.8-4.4,4.6v.3h8.6v-.3c0-2.7-1.6-4.5-4.2-4.5Z"/>
      </g>
      <g class="cls-4">
        <path class="cls-2" d="M-399.6-253.9v-27.2h4.7v11.6h.3c1-2.3,2.8-3.8,5.7-3.8,4.3,0,7.2,3.2,7.2,9.9s-2.9,9.9-7.2,9.9-4.6-1.5-5.7-3.8h-.3v3.3h-4.7ZM-391-257.3c2.7,0,4.3-1.8,4.3-4.7v-3c0-2.9-1.6-4.7-4.3-4.7s-3.9,1-3.9,3.2v6c0,2.2,1.8,3.2,3.9,3.2ZM-365.5-253.9v-3.3h-.2c-.8,2.1-2.5,3.8-5.6,3.8s-6.3-2.6-6.3-7.2v-12.3h4.7v11.6c0,2.7,1.2,4.1,3.6,4.1s3.8-1,3.8-3v-12.7h4.7v19h-4.7ZM-345.8-275.9c-2.2,0-3-1.1-3-2.4v-.9c0-1.3.8-2.4,3-2.4s3,1.1,3,2.4v.9c0,1.3-.8,2.4-3,2.4ZM-354.4-253.9v-3.7h6.3v-11.6h-6.3v-3.7h11v15.3h5.8v3.7h-16.8ZM-333.3-253.9v-3.7h6v-19.8h-6v-3.7h10.7v23.5h6.1v3.7h-16.8ZM-299-253.9v-3.3h-.3c-1,2.3-2.8,3.8-5.7,3.8-4.3,0-7.2-3.2-7.2-9.9s2.9-9.9,7.2-9.9,4.6,1.5,5.7,3.8h.3v-11.6h4.7v27.2h-4.7ZM-303-257.3c2.1,0,3.9-1,3.9-3.2v-6c0-2.2-1.8-3.2-3.9-3.2s-4.3,1.8-4.3,4.7v3c0,2.9,1.6,4.7,4.3,4.7Z"/>
      </g>
      <g class="cls-4">
        <path class="cls-2" d="M510.9,60.7v-3.3h-.3c-1,2.3-2.8,3.8-5.7,3.8-4.3,0-7.2-3.2-7.2-9.9s2.9-9.9,7.2-9.9,4.6,1.5,5.7,3.8h.3v-11.6h4.7v27.2h-4.7ZM507,57.4c2.1,0,3.9-1,3.9-3.2v-6c0-2.2-1.8-3.2-3.9-3.2s-4.3,1.8-4.3,4.7v3c0,2.9,1.6,4.7,4.3,4.7ZM529.6,61.1c-6.1,0-9.5-3.8-9.5-9.9s3.5-10,9.1-10,8.9,3.8,8.9,9.5v1.5h-13.3v.5c0,2.7,1.8,4.6,4.9,4.6s4-1,5.2-2.6l2.7,2.7c-1.4,2-4,3.6-8,3.6ZM529.3,44.7c-2.6,0-4.4,1.8-4.4,4.6v.3h8.6v-.3c0-2.7-1.6-4.5-4.2-4.5ZM542.8,68v-26.3h4.7v3.3h.3c1-2.3,2.8-3.8,5.7-3.8,4.3,0,7.2,3.2,7.2,9.9s-2.9,9.9-7.2,9.9-4.6-1.5-5.7-3.8h-.3v10.7h-4.7ZM551.4,57.4c2.7,0,4.3-1.8,4.3-4.7v-3c0-2.9-1.6-4.7-4.3-4.7s-3.9,1-3.9,3.2v6c0,2.2,1.8,3.2,3.9,3.2ZM564.9,60.7v-3.7h6v-19.8h-6v-3.7h10.7v23.5h6.1v3.7h-16.8ZM595.4,61.1c-5.7,0-9.3-3.8-9.3-9.9s3.5-9.9,9.3-9.9,9.3,3.8,9.3,9.9-3.5,9.9-9.3,9.9ZM595.4,57.5c2.7,0,4.4-1.7,4.4-4.9v-2.9c0-3.2-1.7-4.9-4.4-4.9s-4.4,1.7-4.4,4.9v2.9c0,3.2,1.7,4.9,4.4,4.9ZM619.7,49.6l2.9-7.9h4.8l-9.1,22.4c-1,2.6-2.6,4-5.7,4h-3.5v-3.7h4.5l1.4-3.8-7.7-18.8h5l2.9,7.9,2,6h.3l2-6Z"/>
      </g>
      <g class="cls-4">
        <path class="cls-2" d="M490.1,314.2h-3.9v-19h3.9v2.6h.2c.6-1.7,1.6-3.1,3.6-3.1s3.1,1.2,3.4,3.2h.2c.7-1.7,1.8-3.2,4.1-3.2s3.9,2.1,3.9,6v13.5h-3.9v-12.9c0-2.2-.6-3-1.8-3s-2,.7-2,2.2v13.7h-3.9v-12.9c0-2.2-.6-3-1.8-3s-2,.7-2,2.2v13.7ZM517.9,314.6c-5.7,0-9.3-3.8-9.3-9.9s3.5-9.9,9.3-9.9,9.3,3.8,9.3,9.9-3.5,9.9-9.3,9.9ZM517.9,311c2.7,0,4.4-1.7,4.4-4.9v-2.9c0-3.2-1.7-4.9-4.4-4.9s-4.4,1.7-4.4,4.9v2.9c0,3.2,1.7,4.9,4.4,4.9ZM536.4,314.2h-4.7v-19h4.7v3.3h.2c.8-2.1,2.5-3.8,5.6-3.8s6.3,2.6,6.3,7.2v12.3h-4.7v-11.6c0-2.7-1.2-4.1-3.6-4.1s-3.8,1-3.8,3v12.7ZM563.2,292.2c-2.2,0-3-1.1-3-2.4v-.9c0-1.3.8-2.4,3-2.4s3,1.1,3,2.4v.9c0,1.3-.8,2.4-3,2.4ZM554.6,314.2v-3.7h6.3v-11.6h-6.3v-3.7h11v15.3h5.8v3.7h-16.8ZM592.5,314.2h-7.1c-3.6,0-5.3-2.1-5.3-5.2v-10.1h-5.5v-3.7h3.8c1.5,0,2.1-.5,2.1-2.1v-4.6h4.4v6.7h7.7v3.7h-7.7v11.6h7.7v3.7ZM606.2,314.6c-5.7,0-9.3-3.8-9.3-9.9s3.5-9.9,9.3-9.9,9.3,3.8,9.3,9.9-3.5,9.9-9.3,9.9ZM606.2,311c2.7,0,4.4-1.7,4.4-4.9v-2.9c0-3.2-1.7-4.9-4.4-4.9s-4.4,1.7-4.4,4.9v2.9c0,3.2,1.7,4.9,4.4,4.9ZM620,314.2v-3.7h4.7v-11.6h-4.7v-3.7h9.4v5.2h.3c.7-2.7,2.3-5.2,6.1-5.2h2.1v4.4h-3.9c-3,0-4.6,2-4.6,4.5v6.4h5.1v3.7h-14.5Z"/>
      </g>
      <path class="cls-5" d="M235.1,239.2l66.4-62.2,66.9-62.3,66.4,62.3-137.4,128.8c-36.2,33.9-79.8,48.7-122.3,48v-91.4c20.8.5,42.2-6.6,59.9-23.2Z"/>
      <g class="cls-4">
        <path class="cls-2" d="M148.6,314.2h-7.1c-3.6,0-5.3-2.1-5.3-5.2v-10.1h-5.5v-3.7h3.8c1.5,0,2.1-.5,2.1-2.1v-4.6h4.4v6.7h7.7v3.7h-7.7v11.6h7.7v3.7ZM162.7,314.6c-6.1,0-9.5-3.8-9.5-9.9s3.5-10,9.1-10,8.9,3.8,8.9,9.5v1.5h-13.3v.5c0,2.7,1.8,4.6,4.9,4.6s4-1,5.2-2.6l2.7,2.7c-1.4,2-4,3.6-8,3.6ZM162.4,298.2c-2.7,0-4.4,1.8-4.4,4.6v.3h8.6v-.3c0-2.7-1.6-4.5-4.2-4.5ZM184.3,314.6c-4.2,0-7.3-1.4-9-3.6l2.8-2.5c1.5,1.7,3.6,2.7,6.3,2.7s3.9-.8,3.9-2.4-1.1-1.7-2.6-1.9l-3.1-.5c-3.2-.5-6.2-1.7-6.2-5.5s3.2-6.1,8.4-6.1,6.2,1.1,7.9,2.9l-2.5,2.7c-1.1-1.2-2.8-2.2-5.6-2.2s-3.6.8-3.6,2.2,1.1,1.8,2.6,2l3,.5c3.2.5,6.2,1.7,6.2,5.4s-3.2,6.3-8.6,6.3ZM214.8,314.2h-7.1c-3.6,0-5.3-2.1-5.3-5.2v-10.1h-5.5v-3.7h3.8c1.5,0,2.1-.5,2.1-2.1v-4.6h4.4v6.7h7.7v3.7h-7.7v11.6h7.7v3.7Z"/>
      </g>
      <g class="cls-4">
        <path class="cls-2" d="M323,235.9l-2.5-2.7,3.4-3.2-7.9-8.4-3.4,3.2-2.5-2.7,6.9-6.5,3.6,3.8.2-.2c-1.3-2.4-1.9-5.4.9-8l1.5-1.4,3,3.2-2.8,2.7c-2.2,2-1.9,4.6-.3,6.4l4.4,4.7,3.7-3.5,2.5,2.7-10.6,9.9ZM345.7,215.1c-4.4,4.2-9.5,3.7-13.7-.7-4.2-4.5-4.3-9.7-.2-13.5,4-3.8,9.1-3.4,13,.8l1.1,1.1-9.7,9.1.3.3c1.9,2,4.5,2.1,6.7,0,1.7-1.6,2.2-3.5,2-5.4h3.8c.4,2.5-.4,5.5-3.3,8.2ZM334.2,203.3c-1.9,1.8-2,4.4,0,6.3l.2.2,6.3-5.9-.2-.2c-1.9-2-4.3-2.2-6.1-.4ZM355,205.7l-2.5-2.7,4.4-4.1-13.6-14.4-4.4,4.1-2.5-2.7,7.8-7.4,16.1,17.1,4.4-4.2,2.5,2.7-12.2,11.5ZM377.8,184.8c-4.4,4.2-9.5,3.7-13.7-.7-4.2-4.5-4.3-9.7-.2-13.5,4-3.8,9.1-3.4,13,.8l1.1,1.1-9.7,9.1.3.3c1.9,2,4.5,2.1,6.7,0,1.7-1.6,2.2-3.5,2-5.4h3.8c.4,2.5-.4,5.5-3.3,8.2ZM366.3,173.1c-1.9,1.8-2,4.4,0,6.3l.2.2,6.3-5.9-.2-.2c-1.9-2-4.3-2.2-6.1-.4ZM400.4,163l-2,1.9c-1.7,1.6-3.5,1.5-5,.2h-.1c1.1,2.3.5,4.8-1.6,6.8-2.8,2.6-6,2.7-8.5.1-2.6-2.8-1.9-6.1,2.2-10l2.4-2.3-.9-.9c-1.6-1.7-3.3-1.9-5.2,0-1.7,1.6-2,3.3-1.8,5.1l-3.5.2c-.6-2.3.2-5.4,3.2-8.2,3.6-3.4,7.5-3.7,10.6-.4l6.1,6.5,1.6-1.5,2.4,2.6ZM390.5,168.4c1.6-1.5,2.1-3.5.8-4.8l-1.7-1.8-2.4,2.2c-1.9,1.8-2.2,3.3-1.1,4.4l.5.5c1,1.1,2.5.9,3.9-.5ZM409.6,154.9c-3,2.9-6.3,4-9,3.5l.3-3.7c2.3.2,4.4-.5,6.4-2.3,1.7-1.6,2.3-3.2,1.2-4.4-.9-1-2-.5-3.2.4l-2.6,1.7c-2.6,1.8-5.7,3-8.3.2-2.7-2.9-1.9-6.7,1.9-10.2,2.7-2.5,5.3-3.5,7.8-3.3v3.7c-1.5-.1-3.5.3-5.5,2.2-1.7,1.6-2.1,3-1.1,4.1.9,1,2,.5,3.3-.4l2.5-1.7c2.7-1.8,5.7-3,8.3-.3,2.7,2.8,2,6.8-1.9,10.5ZM426,139.5c-4.4,4.2-9.5,3.7-13.7-.7-4.2-4.5-4.3-9.7-.2-13.5,4-3.8,9.1-3.4,13,.8l1.1,1.1-9.7,9.1.3.3c1.9,2,4.5,2.1,6.7,0,1.7-1.6,2.2-3.5,2-5.4h3.8c.4,2.5-.4,5.5-3.3,8.2ZM414.5,127.7c-1.9,1.8-2,4.4,0,6.4l.2.2,6.3-5.9-.2-.2c-1.9-2-4.3-2.2-6.1-.4Z"/>
      </g>
      <g class="cls-4">
        <path class="cls-2" d="M250.6,91.5l18.2-19.1,3.4,3.2-2.3,2.4.2.2c2.3-.9,4.6-.8,6.7,1.2,3.1,3,3,7.3-1.6,12.2-4.6,4.8-9,5.2-12.1,2.2-2.1-2-2.3-4.3-1.5-6.7l-.2-.2-7.4,7.8-3.4-3.2ZM264.2,89.8c2,1.9,4.4,1.7,6.3-.4l2.1-2.2c2-2.1,2.1-4.5.1-6.4-1.5-1.5-3.6-2-5.1-.4l-4.1,4.3c-1.5,1.6-.9,3.6.6,5ZM271.7,101.5l2.6-2.7,4.4,4.2,13.7-14.3-4.4-4.2,2.6-2.7,7.8,7.4-16.2,17,4.4,4.2-2.6,2.7-12.2-11.6ZM300.8,129.2l-2-1.9c-1.7-1.6-1.7-3.4-.5-5h-.1c-2.1,1.1-4.6.6-6.7-1.4-2.7-2.6-3.1-5.9-.6-8.4,2.6-2.8,6-2.2,10.1,1.7l2.4,2.3.9-.9c1.7-1.7,1.7-3.4-.2-5.2-1.7-1.7-3.4-1.8-5.2-1.5l-.4-3.5c2.3-.7,5.4,0,8.3,2.8,3.6,3.4,4.1,7.2,1,10.5l-6.2,6.5,1.6,1.5-2.4,2.6ZM294.9,119.7c1.6,1.5,3.6,1.9,4.9.6l1.8-1.8-2.3-2.2c-1.9-1.8-3.4-2.1-4.5-.9l-.5.5c-1,1.1-.7,2.5.7,3.9ZM307.2,135.3l-3.4-3.2,13.1-13.7,3.4,3.2-2.3,2.4h.1c2-.8,4.4-.9,6.6,1.2,2.7,2.6,2.8,6.2-.4,9.5l-8.5,8.9-3.4-3.2,8-8.4c1.9-2,2-3.8.3-5.4-1.4-1.3-3.4-1.9-4.8-.4l-8.8,9.2Z"/>
      </g>
      <text class="cls-1" transform="translate(-253.6 -253.5)"><tspan x="0" y="0">build</tspan></text>
      <text class="cls-1" transform="translate(-275.7 -165)"><tspan x="0" y="0">operate</tspan></text>
      <g>
        <path class="cls-2" d="M47.3,238.9l-1.7-4.4,10.8-4.3v-.2c-2.6-.1-4.6-1.2-5.7-3.9-1.6-4,.3-7.9,6.5-10.4,6.2-2.5,10.3-1,11.9,3.1,1.1,2.7.3,4.9-1.4,6.7v.2c0,0,3.2-1.2,3.2-1.2l1.7,4.4-25.3,10.1ZM60.3,219.8l-2.8,1.1c-2.7,1.1-3.8,3.2-2.7,5.7.8,2,2.4,3.3,4.4,2.5l5.5-2.2c2-.8,2.3-2.9,1.5-4.8-1-2.5-3.3-3.3-5.9-2.3Z"/>
        <path class="cls-2" d="M59.5,198v.2c2.2.4,4.2,1.7,4.8,4.7.7,3.7-1.3,6.7-5.8,7.6l-12,2.4-.9-4.6,11.4-2.2c2.7-.5,3.8-2,3.4-4.3-.4-1.9-1.7-3.5-3.7-3.1l-12.5,2.4-.9-4.6,18.7-3.6.9,4.6-3.3.6Z"/>
        <path class="cls-2" d="M37.1,182.3h-.9c-1.3,0-2.4-.8-2.4-3,0-2.2,1-3,2.3-3.1h.9c1.3,0,2.4.8,2.4,3,0,2.2-1,3-2.3,3.1ZM57.8,187.6v-6.3c-.1,0-11.7.2-11.7.2v6.3c.1,0-3.6,0-3.6,0l-.2-11,15.3-.2v-5.8c0,0,3.6,0,3.6,0l.3,16.8h-3.7Z"/>
        <path class="cls-2" d="M58,166.8l1.1-5.9-19.5-3.5-1.1,5.9-3.7-.7,1.9-10.6,23.2,4.1,1.1-6,3.7.7-3,16.6-3.7-.7Z"/>
        <path class="cls-2" d="M67,134.3v.2c1.7,1.8,2.5,3.9,1.4,6.7-1.5,4.1-5.6,5.6-11.9,3.2-6.3-2.4-8.3-6.3-6.7-10.3,1-2.7,3.1-3.8,5.6-4v-.2c0,0-10.8-4.1-10.8-4.1l1.7-4.4,25.5,9.7-1.7,4.4-3.1-1.2ZM64,133.2l-5.6-2.1c-2-.8-3.6.5-4.4,2.5-1,2.5.2,4.7,2.8,5.7l2.8,1.1c2.7,1,4.9.2,5.9-2.4.8-2,.4-4.1-1.6-4.8Z"/>
      </g>
      <g>
        <path class="cls-2" d="M661.2,105.8c5.2-3.3,10.3-2.4,13.4,2.5,3.1,4.8,1.7,9.9-3.4,13.2s-10.3,2.4-13.4-2.5c-3.1-4.8-1.7-9.9,3.4-13.2ZM667.3,118.1l2.5-1.6c2.7-1.7,3.2-4,1.8-6.3-1.4-2.3-3.8-2.8-6.5-1.1l-2.5,1.6c-2.7,1.7-3.2,4-1.8,6.3,1.4,2.3,3.8,2.8,6.5,1.1Z"/>
        <path class="cls-2" d="M682.2,122.4l1.7,4.4-3.1,1.2v.2c2.6.1,4.6,1.2,5.7,3.9,1.6,4-.3,7.9-6.5,10.4-6.2,2.5-10.3,1-11.9-3.1-1.1-2.7-.3-4.9,1.4-6.7v-.2c0,0-10.1,4-10.1,4l-1.7-4.4,24.5-9.8ZM676.8,138.5l2.8-1.1c2.7-1.1,3.8-3.2,2.7-5.7-.8-2-2.4-3.3-4.4-2.5l-5.5,2.2c-2,.8-2.3,2.9-1.5,4.8,1,2.5,3.3,3.3,5.9,2.3Z"/>
        <path class="cls-2" d="M681.2,146.7c6-1.2,10.5,1.6,11.5,7,1.1,5.4-2,9.5-7.6,10.6l-1.5.3-2.6-13.1h-.5c-2.7.6-4.2,2.7-3.6,5.8.4,2.3,1.8,3.7,3.6,4.6l-2.1,3.2c-2.2-1-4.3-3.2-5.1-7.1-1.2-6,1.9-10,7.9-11.2ZM684,151h-.3s1.7,8.5,1.7,8.5h.3c2.7-.6,4.1-2.5,3.6-5-.5-2.6-2.7-4-5.3-3.5Z"/>
        <path class="cls-2" d="M679.3,169.8v4.7c0,0,11.6-.2,11.6-.2v-4.7c0,0,3.6,0,3.6,0l.2,9.4h-5.2c0,0,0,.4,0,.4,2.7.7,5.2,2.2,5.3,6v2.1s-4.4,0-4.4,0v-3.9c-.1-3-2.2-4.5-4.6-4.5h-6.4c0,.1,0,5.2,0,5.2h-3.7c0,0-.2-14.5-.2-14.5h3.7Z"/>
        <path class="cls-2" d="M672.7,206c.4-2.2,1.9-3.3,3.9-3.2v-.2c-2.2-1.1-3.1-3.4-2.6-6.3.7-3.7,3.2-5.8,6.7-5.2,3.8.7,5.2,3.8,4.2,9.3l-.6,3.3,1.2.2c2.4.4,3.8-.5,4.2-3.1.4-2.4-.4-3.9-1.6-5.2l2.7-2.2c1.9,1.5,3,4.4,2.3,8.5-.9,4.9-3.8,7.4-8.3,6.6l-8.8-1.6-.4,2.2-3.5-.6.5-2.7ZM679.1,202.8l2.5.4.6-3.2c.5-2.5-.2-4-1.7-4.2h-.7c-1.5-.4-2.5.7-2.8,2.6-.4,2.2.4,4.1,2.2,4.4Z"/>
        <path class="cls-2" d="M667.9,220.4c1.3-3.4,3.9-4.2,6.7-3.1l9.5,3.6,2-5.2,3.5,1.3-1.3,3.5c-.5,1.4-.3,2.1,1.2,2.7l4.3,1.6-1.6,4.1-6.3-2.4-2.8,7.2-3.5-1.3,2.8-7.2-10.8-4.1-2.8,7.2-3.5-1.3,2.5-6.7Z"/>
        <path class="cls-2" d="M671.9,235.2c5.2,3.2,6.7,8.2,3.8,13-2.9,4.7-7.9,5.6-12.8,2.6l-1.3-.8,7-11.4-.4-.2c-2.3-1.4-4.9-.9-6.5,1.8-1.2,2-1.2,4-.5,5.8l-3.7.9c-1-2.2-1-5.3,1.1-8.7,3.2-5.2,8.2-6.1,13.4-2.9ZM671.1,240.3h-.2c0-.1-4.5,7.2-4.5,7.2l.3.2c2.3,1.4,4.7,1,6-1.2,1.4-2.3.7-4.7-1.6-6.2Z"/>
      </g>
      <path class="cls-8" d="M0-265.2c0-154.5,184.4-234.4,297.1-128.8l137.4,128.8-137.4,128.8C184.4-30.7,0-110.7,0-265.2ZM234.7-327.4c-54.4-51-143.5-12.4-143.5,62.2s89.1,113.3,143.5,62.2l66.4-62.2-66.4-62.2Z"/>
      <path class="cls-9" d="M736-265.2c0-154.5-184.4-234.4-297.1-128.8l-137.4,128.8,137.4,128.8c112.7,105.6,297.1,25.7,297.1-128.8ZM501.3-327.4c54.4-51,143.5-12.4,143.5,62.2s-89.1,113.3-143.5,62.2l-66.4-62.2,66.4-62.2Z"/>
      <g class="cls-11">
        <path class="cls-6" d="M368-327.7l-66.7,62.5,66.7,62.5,66.7-62.5-66.7-62.5Z"/>
      </g>
      <g class="cls-4">
        <path class="cls-2" d="M140.9-381.1c-5.8,0-9.3-3.8-9.3-9.9s3.5-9.9,9.3-9.9,6.4,1.8,7.7,4.6l-3.6,2c-.7-1.6-1.9-2.7-4-2.7s-4.3,1.8-4.3,4.5v3.2c0,2.7,1.5,4.5,4.4,4.5s3.5-1.1,4.3-2.8l3.5,2.1c-1.3,2.7-3.8,4.6-7.9,4.6ZM162.3-381.1c-5.7,0-9.3-3.8-9.3-9.9s3.5-9.9,9.3-9.9,9.3,3.8,9.3,9.9-3.5,9.9-9.3,9.9ZM162.3-384.7c2.7,0,4.4-1.7,4.4-4.9v-2.9c0-3.2-1.7-4.9-4.4-4.9s-4.4,1.7-4.4,4.9v2.9c0,3.2,1.7,4.9,4.4,4.9ZM188.1-381.5v-3.3h-.3c-1,2.3-2.8,3.8-5.7,3.8-4.3,0-7.2-3.2-7.2-9.9s2.9-9.9,7.2-9.9,4.6,1.5,5.7,3.8h.3v-11.6h4.7v27.2h-4.7ZM184.2-384.8c2.1,0,3.9-1,3.9-3.2v-6c0-2.2-1.8-3.2-3.9-3.2s-4.3,1.8-4.3,4.7v3c0,2.9,1.6,4.7,4.3,4.7ZM206.8-381.1c-6.1,0-9.5-3.8-9.5-9.9s3.5-10,9.1-10,8.9,3.8,8.9,9.5v1.5h-13.3v.5c0,2.7,1.8,4.6,4.9,4.6s4-1,5.2-2.6l2.7,2.7c-1.4,2-4,3.6-8,3.6ZM206.5-397.5c-2.6,0-4.4,1.8-4.4,4.6v.3h8.6v-.3c0-2.7-1.6-4.5-4.2-4.5Z"/>
      </g>
      <g class="cls-4">
        <path class="cls-2" d="M510.9-381.5v-3.3h-.3c-1,2.3-2.8,3.8-5.7,3.8-4.3,0-7.2-3.2-7.2-9.9s2.9-9.9,7.2-9.9,4.6,1.5,5.7,3.8h.3v-11.6h4.7v27.2h-4.7ZM507-384.8c2.1,0,3.9-1,3.9-3.2v-6c0-2.2-1.8-3.2-3.9-3.2s-4.3,1.8-4.3,4.7v3c0,2.9,1.6,4.7,4.3,4.7ZM529.6-381.1c-6.1,0-9.5-3.8-9.5-9.9s3.5-10,9.1-10,8.9,3.8,8.9,9.5v1.5h-13.3v.5c0,2.7,1.8,4.6,4.9,4.6s4-1,5.2-2.6l2.7,2.7c-1.4,2-4,3.6-8,3.6ZM529.3-397.5c-2.6,0-4.4,1.8-4.4,4.6v.3h8.6v-.3c0-2.7-1.6-4.5-4.2-4.5ZM542.8-374.1v-26.3h4.7v3.3h.3c1-2.3,2.8-3.8,5.7-3.8,4.3,0,7.2,3.2,7.2,9.9s-2.9,9.9-7.2,9.9-4.6-1.5-5.7-3.8h-.3v10.7h-4.7ZM551.4-384.8c2.7,0,4.3-1.8,4.3-4.7v-3c0-2.9-1.6-4.7-4.3-4.7s-3.9,1-3.9,3.2v6c0,2.2,1.8,3.2,3.9,3.2ZM564.9-381.5v-3.7h6v-19.8h-6v-3.7h10.7v23.5h6.1v3.7h-16.8ZM595.4-381.1c-5.7,0-9.3-3.8-9.3-9.9s3.5-9.9,9.3-9.9,9.3,3.8,9.3,9.9-3.5,9.9-9.3,9.9ZM595.4-384.7c2.7,0,4.4-1.7,4.4-4.9v-2.9c0-3.2-1.7-4.9-4.4-4.9s-4.4,1.7-4.4,4.9v2.9c0,3.2,1.7,4.9,4.4,4.9ZM619.7-392.5l2.9-7.9h4.8l-9.1,22.4c-1,2.6-2.6,4-5.7,4h-3.5v-3.7h4.5l1.4-3.8-7.7-18.8h5l2.9,7.9,2,6h.3l2-6Z"/>
      </g>
      <g class="cls-4">
        <path class="cls-2" d="M490.1-128h-3.9v-19h3.9v2.6h.2c.6-1.7,1.6-3.1,3.6-3.1s3.1,1.2,3.4,3.2h.2c.7-1.7,1.8-3.2,4.1-3.2s3.9,2.1,3.9,6v13.5h-3.9v-12.9c0-2.2-.6-3-1.8-3s-2,.7-2,2.2v13.7h-3.9v-12.9c0-2.2-.6-3-1.8-3s-2,.7-2,2.2v13.7ZM517.9-127.5c-5.7,0-9.3-3.8-9.3-9.9s3.5-9.9,9.3-9.9,9.3,3.8,9.3,9.9-3.5,9.9-9.3,9.9ZM517.9-131.2c2.7,0,4.4-1.7,4.4-4.9v-2.9c0-3.2-1.7-4.9-4.4-4.9s-4.4,1.7-4.4,4.9v2.9c0,3.2,1.7,4.9,4.4,4.9ZM536.4-128h-4.7v-19h4.7v3.3h.2c.8-2.1,2.5-3.8,5.6-3.8s6.3,2.6,6.3,7.2v12.3h-4.7v-11.6c0-2.7-1.2-4.1-3.6-4.1s-3.8,1-3.8,3v12.7ZM563.2-149.9c-2.2,0-3-1.1-3-2.4v-.9c0-1.3.8-2.4,3-2.4s3,1.1,3,2.4v.9c0,1.3-.8,2.4-3,2.4ZM554.6-128v-3.7h6.3v-11.6h-6.3v-3.7h11v15.3h5.8v3.7h-16.8ZM592.5-128h-7.1c-3.6,0-5.3-2.1-5.3-5.2v-10.1h-5.5v-3.7h3.8c1.5,0,2.1-.5,2.1-2.1v-4.6h4.4v6.7h7.7v3.7h-7.7v11.6h7.7v3.7ZM606.2-127.5c-5.7,0-9.3-3.8-9.3-9.9s3.5-9.9,9.3-9.9,9.3,3.8,9.3,9.9-3.5,9.9-9.3,9.9ZM606.2-131.2c2.7,0,4.4-1.7,4.4-4.9v-2.9c0-3.2-1.7-4.9-4.4-4.9s-4.4,1.7-4.4,4.9v2.9c0,3.2,1.7,4.9,4.4,4.9ZM620-128v-3.7h4.7v-11.6h-4.7v-3.7h9.4v5.2h.3c.7-2.7,2.3-5.2,6.1-5.2h2.1v4.4h-3.9c-3,0-4.6,2-4.6,4.5v6.4h5.1v3.7h-14.5Z"/>
      </g>
      <path class="cls-7" d="M235.1-202.9l66.4-62.2,66.9-62.3,66.4,62.3-137.4,128.8c-36.2,33.9-79.8,48.7-122.3,48v-91.4c20.8.5,42.2-6.6,59.9-23.2Z"/>
      <g class="cls-4">
        <path class="cls-2" d="M148.6-128h-7.1c-3.6,0-5.3-2.1-5.3-5.2v-10.1h-5.5v-3.7h3.8c1.5,0,2.1-.5,2.1-2.1v-4.6h4.4v6.7h7.7v3.7h-7.7v11.6h7.7v3.7ZM162.7-127.5c-6.1,0-9.5-3.8-9.5-9.9s3.5-10,9.1-10,8.9,3.8,8.9,9.5v1.5h-13.3v.5c0,2.7,1.8,4.6,4.9,4.6s4-1,5.2-2.6l2.7,2.7c-1.4,2-4,3.6-8,3.6ZM162.4-144c-2.7,0-4.4,1.8-4.4,4.6v.3h8.6v-.3c0-2.7-1.6-4.5-4.2-4.5ZM184.3-127.5c-4.2,0-7.3-1.4-9-3.6l2.8-2.5c1.5,1.7,3.6,2.7,6.3,2.7s3.9-.8,3.9-2.4-1.1-1.7-2.6-1.9l-3.1-.5c-3.2-.5-6.2-1.7-6.2-5.5s3.2-6.1,8.4-6.1,6.2,1.1,7.9,2.9l-2.5,2.7c-1.1-1.2-2.8-2.2-5.6-2.2s-3.6.8-3.6,2.2,1.1,1.8,2.6,2l3,.5c3.2.5,6.2,1.7,6.2,5.4s-3.2,6.3-8.6,6.3ZM214.8-128h-7.1c-3.6,0-5.3-2.1-5.3-5.2v-10.1h-5.5v-3.7h3.8c1.5,0,2.1-.5,2.1-2.1v-4.6h4.4v6.7h7.7v3.7h-7.7v11.6h7.7v3.7Z"/>
      </g>
      <g class="cls-4">
        <path class="cls-2" d="M323-206.3l-2.5-2.7,3.4-3.2-7.9-8.4-3.4,3.2-2.5-2.7,6.9-6.5,3.6,3.8.2-.2c-1.3-2.4-1.9-5.4.9-8l1.5-1.4,3,3.2-2.8,2.7c-2.2,2-1.9,4.6-.3,6.4l4.4,4.7,3.7-3.5,2.5,2.7-10.6,9.9ZM345.7-227.1c-4.4,4.2-9.5,3.7-13.7-.7-4.2-4.5-4.3-9.7-.2-13.5,4-3.8,9.1-3.4,13,.8l1.1,1.1-9.7,9.1.3.3c1.9,2,4.5,2.1,6.7,0,1.7-1.6,2.2-3.5,2-5.4h3.8c.4,2.5-.4,5.5-3.3,8.2ZM334.2-238.8c-1.9,1.8-2,4.4,0,6.3l.2.2,6.3-5.9-.2-.2c-1.9-2-4.3-2.2-6.1-.4ZM355-236.5l-2.5-2.7,4.4-4.1-13.6-14.4-4.4,4.1-2.5-2.7,7.8-7.4,16.1,17.1,4.4-4.2,2.5,2.7-12.2,11.5ZM377.8-257.3c-4.4,4.2-9.5,3.7-13.7-.7-4.2-4.5-4.3-9.7-.2-13.5,4-3.8,9.1-3.4,13,.8l1.1,1.1-9.7,9.1.3.3c1.9,2,4.5,2.1,6.7,0,1.7-1.6,2.2-3.5,2-5.4h3.8c.4,2.5-.4,5.5-3.3,8.2ZM366.3-269.1c-1.9,1.8-2,4.4,0,6.3l.2.2,6.3-5.9-.2-.2c-1.9-2-4.3-2.2-6.1-.4ZM400.4-279.2l-2,1.9c-1.7,1.6-3.5,1.5-5,.2h-.1c1.1,2.3.5,4.8-1.6,6.8-2.8,2.6-6,2.7-8.5.1-2.6-2.8-1.9-6.1,2.2-10l2.4-2.3-.9-.9c-1.6-1.7-3.3-1.9-5.2,0-1.7,1.6-2,3.3-1.8,5.1l-3.5.2c-.6-2.3.2-5.4,3.2-8.2,3.6-3.4,7.5-3.7,10.6-.4l6.1,6.5,1.6-1.5,2.4,2.6ZM390.5-273.7c1.6-1.5,2.1-3.5.8-4.8l-1.7-1.8-2.4,2.2c-1.9,1.8-2.2,3.3-1.1,4.4l.5.5c1,1.1,2.5.9,3.9-.5ZM409.6-287.2c-3,2.9-6.3,4-9,3.5l.3-3.7c2.3.2,4.4-.5,6.4-2.3,1.7-1.6,2.3-3.2,1.2-4.4-.9-1-2-.5-3.2.4l-2.6,1.7c-2.6,1.8-5.7,3-8.3.2-2.7-2.9-1.9-6.7,1.9-10.2,2.7-2.5,5.3-3.5,7.8-3.3v3.7c-1.5-.1-3.5.3-5.5,2.2-1.7,1.6-2.1,3-1.1,4.1.9,1,2,.5,3.3-.4l2.5-1.7c2.7-1.8,5.7-3,8.3-.3,2.7,2.8,2,6.8-1.9,10.5ZM426-302.7c-4.4,4.2-9.5,3.7-13.7-.7-4.2-4.5-4.3-9.7-.2-13.5,4-3.8,9.1-3.4,13,.8l1.1,1.1-9.7,9.1.3.3c1.9,2,4.5,2.1,6.7,0,1.7-1.6,2.2-3.5,2-5.4h3.8c.4,2.5-.4,5.5-3.3,8.2ZM414.5-314.4c-1.9,1.8-2,4.4,0,6.4l.2.2,6.3-5.9-.2-.2c-1.9-2-4.3-2.2-6.1-.4Z"/>
      </g>
      <g class="cls-4">
        <path class="cls-2" d="M250.6-350.6l18.2-19.1,3.4,3.2-2.3,2.4.2.2c2.3-.9,4.6-.8,6.7,1.2,3.1,3,3,7.3-1.6,12.2-4.6,4.8-9,5.2-12.1,2.2-2.1-2-2.3-4.3-1.5-6.7l-.2-.2-7.4,7.8-3.4-3.2ZM264.2-352.4c2,1.9,4.4,1.7,6.3-.4l2.1-2.2c2-2.1,2.1-4.5.1-6.4-1.5-1.5-3.6-2-5.1-.4l-4.1,4.3c-1.5,1.6-.9,3.6.6,5ZM271.7-340.7l2.6-2.7,4.4,4.2,13.7-14.3-4.4-4.2,2.6-2.7,7.8,7.4-16.2,17,4.4,4.2-2.6,2.7-12.2-11.6ZM300.8-312.9l-2-1.9c-1.7-1.6-1.7-3.4-.5-5h-.1c-2.1,1.1-4.6.6-6.7-1.4-2.7-2.6-3.1-5.9-.6-8.4,2.6-2.8,6-2.2,10.1,1.7l2.4,2.3.9-.9c1.7-1.7,1.7-3.4-.2-5.2-1.7-1.7-3.4-1.8-5.2-1.5l-.4-3.5c2.3-.7,5.4,0,8.3,2.8,3.6,3.4,4.1,7.2,1,10.5l-6.2,6.5,1.6,1.5-2.4,2.6ZM294.9-322.5c1.6,1.5,3.6,1.9,4.9.6l1.8-1.8-2.3-2.2c-1.9-1.8-3.4-2.1-4.5-.9l-.5.5c-1,1.1-.7,2.5.7,3.9ZM307.2-306.9l-3.4-3.2,13.1-13.7,3.4,3.2-2.3,2.4h.1c2-.8,4.4-.9,6.6,1.2,2.7,2.6,2.8,6.2-.4,9.5l-8.5,8.9-3.4-3.2,8-8.4c1.9-2,2-3.8.3-5.4-1.4-1.3-3.4-1.9-4.8-.4l-8.8,9.2Z"/>
      </g>
      <text>
        <textPath xlink:href="#path"><tspan class="cls-1"><tspan x="0" y="0">build</tspan></tspan>
        </textPath></text>
      <text>
        <textPath xlink:href="#path-2"><tspan class="cls-1"><tspan x="0" y="0">operate</tspan></tspan>
        </textPath></text>
    </g>
  </g>
</svg>